<svg width="84" height="76" xmlns="http://www.w3.org/2000/svg">

 <g>
  <title>background</title>
  <rect fill="none" id="canvas_background" height="78" width="86" y="-1" x="-1"/>
 </g>
 <g>
  <title>Layer 1</title>
  <g id="svg_1" display="inline">
   <path id="svg_2" fill="#845335" d="m7.8652,0l-3.02736,13.88296l-3.73968,-3.4783l3.59128,11.64475l-4.68944,-2.72215c0,0 7.94884,10.88837 10.35833,14.79035c3.11134,5.03859 -0.56883,2.37942 4.63008,10.16269c0.90677,4.95906 -0.79243,2.0544 -0.83104,4.29495c-0.04686,2.71899 7.06981,11.39269 12.07976,10.58614c5.00996,-0.80656 -5.79529,-8.02688 -2.55248,-8.37818c7.92757,1.46297 6.6782,-4.95012 10.26929,0.63517c2.00074,2.27534 5.72623,1.47996 6.20312,1.14935c2.49182,-1.72746 -6.88779,-6.33718 -3.50224,-6.50291c5.90285,-0.28895 21.24426,8.90955 25.02025,13.88297c1.78023,2.34477 0.47775,7.66839 -0.41552,10.55589c-0.33392,1.07938 -2.1154,1.54234 -2.13696,3.4783c-0.02341,2.10303 4.44461,1.527 6.2328,0.75615c3.7099,-1.59925 1.74718,-7.34178 3.29448,-9.37629c1.005,-1.32145 3.2326,-0.87821 4.21456,-0.3932c1.99267,0.9842 1.89058,9.16111 5.04561,10.46515c1.83224,0.75731 5.90871,1.58884 6.29216,-0.99812c0.33945,-2.29015 -2.58558,-2.42132 -3.17576,-3.62953c-1.75719,-3.59734 -1.96456,-7.2148 -2.90864,-11.16082c-1.91247,-7.99364 -1.81401,-12.58319 -1.9292,-16.78659c-0.1152,-4.2034 2.45031,-12.94253 6.35152,-16.75634c0,0 1.47547,-1.25162 1.45432,-4.02273c-0.02115,-2.77111 -0.98412,-2.3612 -1.06848,-3.17584c-0.08434,-0.81464 1.15554,-3.04791 -1.36528,-4.74864c-2.52082,-1.70074 -4.83784,1.05861 -4.83784,1.05861c-6.03872,-1.14368 -10.32865,0.15123 -10.32865,0.15123c0,0 -1.56481,-2.70781 -4.42232,-1.66353c-2.85751,1.04427 -3.14483,2.81648 -2.25568,5.0511c-0.41539,0.46549 -1.49906,3.27876 -0.62328,5.32331c2.85269,6.14064 8.58855,7.89385 4.39264,11.61451c-0.63963,0.56719 -2.5646,0.28699 -3.32416,-0.06049c-6.04627,-2.76608 -16.20977,-16.46208 -22.67553,-17.9057c-5.38,-1.2012 -9.55261,-2.69912 -16.08657,0.84689c-3.96667,2.15273 -5.28902,3.34103 -9.26016,8.31768c-7.00253,-2.25704 -4.27393,-26.88879 -4.27393,-26.88879zm54.87835,14.03419c1.54819,-0.11052 2.25568,1.36108 2.25568,1.36108c0,0 -1.16423,-1.14076 -3.32416,0.18147c-2.15993,1.32224 -0.6442,1.72669 -1.60272,2.54068c-0.6108,-1.17604 -0.94073,-2.46121 1.45432,-3.69003c0.44907,-0.2304 0.8596,-0.36769 1.21688,-0.3932zm17.00665,0c0.42865,-0.03938 0.89993,0.06724 1.39496,0.45369c1.66602,0.81901 1.94341,2.9488 1.24656,4.05298c-0.96846,-0.54404 0.52722,-1.70508 -1.484,-3.20608c-1.89304,-1.41281 -1.85767,0.33574 -3.14608,0c0.6438,-0.68756 1.27414,-1.23495 1.98856,-1.30059zm-8.07297,2.81289c3.55299,0.03329 10.04445,1.47876 10.50673,4.99061c0.18942,1.9138 -0.90354,3.49785 -4.36296,5.38381c-2.07001,1.12849 -3.38496,0.4962 -4.89721,0.3327c0.21132,-0.31217 0.41042,-0.64992 0.77168,-0.93763c0.08602,-0.76072 -3.99309,-0.75564 -3.88808,-0.06049c0.39354,0.41424 0.68659,0.82926 1.00912,1.14936c-1.56073,0.26276 -3.35021,0.67219 -5.01592,-0.03025c-2.19244,-0.92457 -5.54336,-1.95276 -5.4908,-5.56529c0.05256,-3.61253 7.81446,-5.29612 11.36744,-5.26282zm-0.38584,2.26846c-2.56208,0.15454 -7.60077,0.95948 -8.57752,2.60116c-0.97675,1.64169 0.25401,2.87494 0.97944,3.08511c0.72543,0.21016 1.28545,0.24031 1.484,-0.54443c0.19855,-0.78475 0.51868,-1.76708 1.9292,-2.26846c1.41052,-0.50138 1.46932,0.19496 2.16664,1.66354c0.74752,0.17983 1.23342,-0.56147 2.40408,-0.54443c1.17066,0.01703 1.38523,0.68799 2.04793,0.3932c0.66933,-1.21 0.53825,-2.14955 1.98856,-1.99625c1.4503,0.15331 2.18322,1.93702 2.34472,2.44994c0.43826,0.79497 0.7152,0.8983 1.42464,0.75615c0.70944,-0.14215 1.47898,-1.73482 0.77168,-3.23633c-0.7073,-1.50152 -6.40128,-2.51374 -8.96337,-2.3592zm4.54105,3.23633c-0.63567,-0.06745 -1.3356,0.87714 -1.3356,0.87714c0,0 0.83425,-0.11282 1.3356,0c0.50135,0.11282 1.60272,0.75615 1.60272,0.75615c0,0 -0.96706,-1.56583 -1.60272,-1.63329zm-8.51817,0.18148c-0.63351,0.06051 -1.54336,1.75427 -1.54336,1.75427c0,0 1.00212,-0.75752 1.484,-0.87713c0.48189,-0.11962 1.24656,0.06049 1.24656,0.06049c0,0 -0.55369,-0.99814 -1.1872,-0.93763zm10.06153,7.83374c-1.37504,6.75796 -4.31272,10.831 -4.30361,14.4274c-0.35614,-0.39465 -6.15465,-3.91033 -6.17344,-13.27805c1.31378,1.69364 2.87083,2.87143 5.194,3.05486c1.44613,-0.03849 3.59251,-2.9718 5.28305,-4.20421z"/>
  </g>
 </g>
</svg>