<svg width="32" height="17" xmlns="http://www.w3.org/2000/svg">

 <g>
  <title>background</title>
  <rect fill="none" id="canvas_background" height="19" width="34" y="-1" x="-1"/>
 </g>
 <g>
  <title>Layer 1</title>
  <path fill="#00bf00" id="svg_1" d="m7.38091,3.71633c0,0 -1.131,0 -1.603,-0.236c-0.471,-0.235 -1.791,-0.424 -2.262,-0.377c0,0 -0.613,-0.384 -1.272,0.303c0,0 -1.837,0.31 -2.167,0.828s0.424,1.367 1.838,1.697c1.414,0.33 1.885,0.707 2.356,0.895c0.471,0.189 0.896,0 1.414,0c0,0 1.885,1.431 1.979,1.682c0.094,0.25 -0.142,1.005 -0.377,1.24c0,0 -0.825,-0.401 -1.073,-0.33c-0.247,0.071 0.106,0.389 0.424,0.601c0,0 -1.061,0.035 -1.167,0.247s0.601,0.354 0.955,0.354c0,0 -0.778,0.671 -0.672,0.848s0.636,-0.035 1.06,-0.212c0,0 0.071,1.025 0.389,0.777c0.318,-0.247 0.432,-0.636 0.481,-0.919s0.685,-1.484 1.286,-2.085c0.601,-0.6 0.283,-0.813 0.248,-1.024c0,0 0.989,0.919 4.064,2.156c0,0 -0.194,1.113 1.166,1.467c0,0 0.106,0.459 0.371,0.565c0,0 -0.725,-0.053 -0.901,0.088c-0.176,0.141 -0.194,0.318 0.124,0.354c0.318,0.035 0.777,0 0.777,0s-0.583,1.13 -0.371,1.201c0.212,0.071 0.548,-0.194 0.848,-0.583s0.742,0.954 1.025,1.042c0.283,0.088 0.335,-0.512 0,-1.29c-0.335,-0.778 0.671,-0.442 1.184,-0.583c0.512,-0.141 0.106,-0.548 -0.831,-0.495c0,0 -0.477,-0.371 -0.265,-0.477c0,0 0.689,0 1.096,-0.3c0,0 3.162,1.863 4.717,2.429c1.555,0.565 2.829,1.023 4.336,1.447c1.508,0.424 3.346,0.942 4.618,1.46c1.272,0.519 1.461,-0.518 -2.309,-2.214c-3.77,-1.697 -7.68,-2.424 -9.612,-4.464c0,0 0.659,-0.649 0.777,-0.838c0.117,-0.188 0.377,-0.023 0.565,0.047c0.188,0.07 1.083,0.71 1.249,0.791c0.165,0.082 0.588,1.235 0.918,1.094c0.331,-0.142 -0.353,-0.943 -0.353,-1.249s0.943,-0.235 1.437,-0.094c0.495,0.141 0.4,-0.424 -0.942,-0.707c0,0 -0.188,-0.077 -0.047,-0.345c0.142,-0.268 0.778,-0.739 0.519,-0.88c-0.26,-0.142 -0.731,0.236 -1.037,0.495c-0.306,0.259 -0.423,-0.118 -0.518,-0.542c-0.095,-0.424 -0.731,-0.447 -0.377,0.565c0,0 -0.306,0.236 -0.66,-0.235s-0.636,-0.966 -1.154,-1.013c-0.519,-0.047 -1.885,0.801 -2.003,1.06c-0.117,0.259 -4.924,-3.133 -8.317,-3.628c0,0 0.919,-0.754 0.73,-1.178c-0.188,-0.424 -1.507,-0.942 -1.224,-1.202c0.283,-0.259 0.919,-0.447 0.848,-0.706c-0.07,-0.259 -0.354,-0.165 -0.825,0c-0.471,0.165 -0.142,-0.377 0,-0.707c0.141,-0.33 -0.118,-0.825 -0.777,0.542c0,0 -0.26,-0.566 -0.495,-0.907c-0.235,-0.342 -0.754,-0.271 -0.047,1.142c0,0 -0.235,0.188 -0.754,-0.071c-0.518,-0.259 -0.731,0.259 0.518,0.683s0.919,0.731 0.966,1.107s-0.452,0.699 -0.871,0.684z"/>
  <text id="svg_2" font-family="'Helvetica Neue', Helvetica, Arial-Unicode, Arial, Sans-serif" font-weight="bold" font-size="5px" fill="#000000" y="48" x="0">Created by TkBt</text>
  <text id="svg_3" font-family="'Helvetica Neue', Helvetica, Arial-Unicode, Arial, Sans-serif" font-weight="bold" font-size="5px" fill="#000000" y="53" x="0">from the Noun Project</text>
 </g>
</svg>