<svg width="35" height="64" xmlns="http://www.w3.org/2000/svg">

 <g>
  <title>background</title>
  <rect fill="none" id="canvas_background" height="66" width="37" y="-1" x="-1"/>
 </g>
 <g>
  <title>Layer 1</title>
  <g id="svg_1">
   <path fill="#ff0000" id="svg_2" d="m9.54594,36.49657c0,0 0.4,-0.2 0.8,-0.5c-1.2,-1.6 -2.2,-3.2 -3.1,-4.9l-0.2,3.4c0,0 -0.1,0 -0.3,0c-2,0 -3.1,1.3 -4,2.7c2.7,-1 5.9,-0.2 7.9,2.8c0.1,0.1 0.7,-2 -1.1,-3.5z"/>
   <path fill="#ff0000" id="svg_3" d="m3.64594,6.89657c0.3,-0.3 0.4,-0.6 0.5,-0.9c0.4,-1.7 -2,-2.7 -3,-1.2c-1,1.4 -1.8,4 1.4,6.6c-0.1,0 -0.3,-3 1.1,-4.5z"/>
   <path fill="#ff0000" id="svg_4" d="m22.74594,41.59657c0,-0.3 0.2,-0.6 0.5,-0.7c0.3,-0.1 0.6,0 0.8,0.2c1.8,2 4.3,4 5.1,3.7c0.5,-0.2 0.2,-2 0.1,-2.6c-0.1,-0.6 0.5,-1 1,-0.6c1.5,1.3 2,0.6 1.8,-1.3c0,-0.2 0.2,-0.3 0.4,-0.2l1.3,0.4c0.2,0.1 0.5,-0.1 0.4,-0.4c-0.3,-1.4 -1.4,-5.1 -5.3,-8.4c-0.3,-0.3 -0.2,-0.8 0.2,-0.8l0.8,-0.1c0.3,-0.1 0.5,-0.4 0.3,-0.7c-0.9,-1.4 -3,-4.7 -5.1,-6.5c-0.2,0.6 -0.6,1 -1,1.3c-1.1,0.6 -2.5,0 -3.5,-0.6c-0.4,2.4 -2.3,3.4 -5.7,-0.4c-0.4,0.8 -1.1,1.7 -2.1,1.7c-1.6,-0.1 -2.8,-2.6 -3.4,-4.5c-1.2,1.5 -2.7,1 -4,-0.5c1,8.7 6.6,17.2 14.5,22.5c2,0.8 2.8,0.3 2.9,-1.5z"/>
   <path fill="#ff0000" id="svg_5" d="m3.24594,3.19657c2,0.6 2.5,2.9 1.1,4.5c-0.3,0.3 -0.4,0.7 -0.6,1.1c0.5,0.5 1,0.7 2,0.9c0.4,0.1 0.6,0.5 0.4,0.8c-0.7,2.2 -1,4.5 -1.1,6.8c0.8,1.5 1.9,3 2.5,2.9c0.3,0 0.7,-0.5 1.1,-1.7c0.1,-0.3 0.4,-0.5 0.7,-0.5c0.3,0 0.6,0.2 0.7,0.6c0.7,2.7 2,5.2 2.6,5.3c0.1,0 0.6,-0.3 1.1,-1.8c0.2,-0.6 0.9,-0.7 1.3,-0.2c1.3,1.7 3,3 3.5,2.9c0.1,0 0.4,-0.5 0.4,-2c0,-0.7 0.8,-1 1.3,-0.6c0.8,0.7 2.3,1.6 2.9,1.3c0.1,-0.1 0.3,-0.3 0.5,-0.9c0,0 0,0 0,0c0,0 0.6,-8.2 -7.7,-12.9c-0.6,-0.4 -0.9,-1.2 -0.9,-1.9c-0.2,-2.2 -1.3,-6.8 -8,-7.7c-1.5,-0.2 -3.1,-0.1 -4.5,0.4c-1.6,0.2 -3.4,1.4 -2.1,3.5c0.6,-0.8 1.7,-1.2 2.8,-0.8zm2.5,-2.1c0.7,0 1.2,0.5 1.2,1.2c0,0.7 -0.5,1.2 -1.2,1.2c-0.7,0 -1.2,-0.5 -1.2,-1.2c0.1,-0.7 0.6,-1.2 1.2,-1.2z"/>
   <path fill="#ff0000" id="svg_6" d="m29.74594,46.19657c-1.8,0.7 -4.4,-1.6 -5.8,-3c-0.3,0.9 -0.9,1.5 -1.9,1.6c0.8,2.2 3.3,9.2 6.7,12.1c1.5,1.3 3,6.4 5.6,6.8c2.2,0.3 -3.3,-14.2 -4.6,-17.5z"/>
   <circle fill="#ff0000" id="svg_7" r="0.6" cy="2.29657" cx="5.74594"/>
  </g>
  <text id="svg_9" font-family="'Helvetica Neue', Helvetica, Arial-Unicode, Arial, Sans-serif" font-weight="bold" font-size="5px" fill="#000000" y="86" x="0">from the Noun Project</text>
 </g>
</svg>